<svg xmlns="http://www.w3.org/2000/svg" viewBox="0 0 512 512" width="512" height="512">
  <defs>
    <linearGradient id="dGradient" x1="0" y1="0" x2="0" y2="512" gradientUnits="userSpaceOnUse">
      <stop offset="0" stop-color="#C084FC"/>
      <stop offset="1" stop-color="#581C87"/>
    </linearGradient>
    <clipPath id="dClip">
      <g transform="matrix(0.400000,0,0,-0.400000,105.0000,406.4000)">
        <path d="M693 351Q693 248 647.5 168.0Q602 88 518.5 44.0Q435 0 325 0H62V702H325Q436 702 519.0 658.0Q602 614 647.5 534.5Q693 455 693 351ZM519 351Q519 448 465.0 502.0Q411 556 314 556H233V148H314Q411 148 465.0 201.0Q519 254 519 351Z"/>
      </g>
    </clipPath>
  </defs>
  <rect x="0" y="0" width="512" height="512" rx="112.64" ry="112.64" fill="#19112A"/>
  <rect x="0" y="0" width="512" height="512" fill="url(#dGradient)" clip-path="url(#dClip)"/>
</svg>
